<?xml version="1.0" encoding="iso-8859-1"?>
<!-- Generator: Adobe Illustrator 19.0.0, SVG Export Plug-In . SVG Version: 6.00 Build 0)  -->
<svg version="1.1" id="Capa_1" xmlns="http://www.w3.org/2000/svg" xmlns:xlink="http://www.w3.org/1999/xlink" x="0px" y="0px"
	 viewBox="0 0 470 470" style="enable-background:new 0 0 470 470;" xml:space="preserve">
<g>
	<path style="fill:#FFFFFF;" d="M315.393,312.75c-21.88-11.793-46.62-18.931-72.893-20.077V315c0,4.143-3.358,7.5-7.5,7.5
		s-7.5-3.357-7.5-7.5v-22.327c-26.272,1.146-51.013,8.284-72.893,20.077l72.893,72.894V345c0-4.143,3.358-7.5,7.5-7.5
		s7.5,3.357,7.5,7.5v40.644L315.393,312.75z"/>
	<path style="fill:#FFCC75;" d="M153.75,156.25c0,44.802,36.449,81.25,81.25,81.25s81.25-36.448,81.25-81.25
		c0-8.416-1.284-16.464-3.891-24.514c-9.108-4.539-19.365-6.933-29.85-6.933c-15.563,0-30.732,5.49-42.712,15.459
		c-1.39,1.156-3.094,1.734-4.797,1.734s-3.407-0.578-4.797-1.734c-11.979-9.969-27.148-15.459-42.712-15.459
		c-10.485,0-20.742,2.395-29.85,6.933C155.034,139.786,153.75,147.834,153.75,156.25z"/>
	<path style="fill:#6DA8D6;" d="M159,114.834c9.013-3.311,18.68-5.031,28.491-5.031c17.04,0,33.69,5.371,47.509,15.229
		c13.819-9.858,30.47-15.229,47.509-15.229c9.811,0,19.478,1.721,28.491,5.031V47.5c0-4.143,3.358-7.5,7.5-7.5V25H159V114.834z"/>
	<path style="fill:#185F8D;" d="M137.5,455h267.337c-2.444-56.051-32.163-105.136-76.177-134.303l-88.356,88.357
		c-0.018,0.018-0.038,0.033-0.057,0.051c-0.156,0.153-0.317,0.301-0.486,0.44c-0.054,0.044-0.112,0.082-0.167,0.125
		c-0.139,0.107-0.277,0.215-0.423,0.313c-0.049,0.033-0.101,0.06-0.151,0.091c-0.157,0.101-0.315,0.199-0.48,0.288
		c-0.037,0.02-0.075,0.035-0.112,0.054c-0.181,0.093-0.363,0.182-0.552,0.261c-0.026,0.011-0.054,0.019-0.081,0.029
		c-0.2,0.08-0.402,0.155-0.609,0.218c-0.026,0.008-0.054,0.013-0.08,0.021c-0.207,0.061-0.416,0.116-0.63,0.158
		c-0.059,0.012-0.119,0.017-0.178,0.027c-0.182,0.032-0.363,0.063-0.549,0.082c-0.248,0.025-0.498,0.038-0.749,0.038
		s-0.501-0.013-0.749-0.038c-0.186-0.019-0.368-0.05-0.549-0.082c-0.059-0.01-0.119-0.016-0.178-0.027
		c-0.214-0.042-0.423-0.098-0.63-0.158c-0.026-0.008-0.054-0.013-0.08-0.021c-0.208-0.063-0.41-0.138-0.609-0.218
		c-0.027-0.011-0.054-0.019-0.081-0.029c-0.189-0.079-0.371-0.168-0.552-0.261c-0.037-0.019-0.076-0.035-0.112-0.054
		c-0.165-0.088-0.323-0.187-0.48-0.288c-0.05-0.031-0.102-0.059-0.151-0.091c-0.146-0.098-0.285-0.206-0.423-0.313
		c-0.055-0.043-0.113-0.081-0.167-0.125c-0.169-0.139-0.33-0.287-0.486-0.44c-0.018-0.018-0.039-0.033-0.057-0.051l-88.356-88.357
		C97.326,349.864,67.607,398.949,65.163,455H107.5c4.142,0,7.5,3.357,7.5,7.5h15C130,458.357,133.358,455,137.5,455z"/>
	<path style="fill:#082947;" d="M332.455,305.319c-0.527-0.439-1.102-0.789-1.704-1.061C302.801,287.283,270.022,277.5,235,277.5
		s-67.801,9.783-95.751,26.758c-0.602,0.272-1.177,0.622-1.704,1.061C85.033,337.996,50,396.229,50,462.5c0,4.143,3.358,7.5,7.5,7.5
		h50c4.142,0,7.5-3.357,7.5-7.5s-3.358-7.5-7.5-7.5H65.163c2.444-56.051,32.163-105.136,76.177-134.303l88.356,88.357
		c0.018,0.018,0.038,0.033,0.057,0.051c0.156,0.153,0.317,0.301,0.486,0.44c0.054,0.044,0.112,0.082,0.167,0.125
		c0.139,0.107,0.277,0.215,0.423,0.313c0.049,0.033,0.101,0.06,0.151,0.091c0.157,0.101,0.315,0.199,0.48,0.288
		c0.037,0.02,0.075,0.035,0.112,0.054c0.181,0.093,0.363,0.182,0.552,0.261c0.026,0.011,0.054,0.019,0.081,0.029
		c0.2,0.08,0.402,0.155,0.609,0.218c0.026,0.008,0.054,0.013,0.08,0.021c0.207,0.061,0.416,0.116,0.63,0.158
		c0.059,0.012,0.119,0.017,0.178,0.027c0.182,0.032,0.363,0.063,0.549,0.082c0.248,0.025,0.498,0.038,0.749,0.038
		s0.501-0.013,0.749-0.038c0.186-0.019,0.368-0.05,0.549-0.082c0.059-0.01,0.119-0.016,0.178-0.027
		c0.214-0.042,0.423-0.098,0.63-0.158c0.026-0.008,0.054-0.013,0.08-0.021c0.208-0.063,0.41-0.138,0.609-0.218
		c0.027-0.011,0.054-0.019,0.081-0.029c0.189-0.079,0.371-0.168,0.552-0.261c0.037-0.019,0.076-0.035,0.112-0.054
		c0.165-0.088,0.323-0.187,0.48-0.288c0.05-0.031,0.102-0.059,0.151-0.091c0.146-0.098,0.285-0.206,0.423-0.313
		c0.055-0.043,0.113-0.081,0.167-0.125c0.169-0.139,0.33-0.287,0.486-0.44c0.018-0.018,0.039-0.033,0.057-0.051l88.356-88.357
		c44.014,29.167,73.733,78.252,76.177,134.303H137.5c-4.142,0-7.5,3.357-7.5,7.5s3.358,7.5,7.5,7.5h275c4.142,0,7.5-3.357,7.5-7.5
		C420,396.229,384.967,337.996,332.455,305.319z M235,337.5c-4.142,0-7.5,3.357-7.5,7.5v40.644l-72.893-72.894
		c21.88-11.793,46.62-18.931,72.893-20.077V315c0,4.143,3.358,7.5,7.5,7.5s7.5-3.357,7.5-7.5v-22.327
		c26.272,1.146,51.013,8.284,72.893,20.077L242.5,385.644V345C242.5,340.857,239.142,337.5,235,337.5z"/>
	<path style="fill:#082947;" d="M57.5,25H144v100.258c-3.518,10.175-5.25,20.329-5.25,30.992c0,53.072,43.178,96.25,96.25,96.25
		s96.25-43.178,96.25-96.25c0-10.663-1.732-20.817-5.25-30.992V47.5c0-4.143-3.358-7.5-7.5-7.5s-7.5,3.357-7.5,7.5v67.334
		c-9.013-3.311-18.68-5.031-28.491-5.031c-17.04,0-33.69,5.371-47.509,15.229c-13.819-9.858-30.47-15.229-47.509-15.229
		c-9.811,0-19.478,1.721-28.491,5.031V25h226v129.758l-10.91,26.339c-1.585,3.827,0.232,8.214,4.059,9.799
		c3.828,1.588,8.214-0.232,9.799-4.059l4.551-10.988l4.551,10.988c1.196,2.889,3.989,4.632,6.932,4.632
		c0.957,0,1.929-0.185,2.867-0.573c3.827-1.585,5.644-5.972,4.059-9.799L400,154.758V25h12.5c4.142,0,7.5-3.357,7.5-7.5
		s-3.358-7.5-7.5-7.5H400V7.5c0-4.143-3.358-7.5-7.5-7.5S385,3.357,385,7.5V10H57.5c-4.142,0-7.5,3.357-7.5,7.5S53.358,25,57.5,25z
		 M187.491,124.803c15.563,0,30.732,5.49,42.712,15.459c1.39,1.156,3.094,1.734,4.797,1.734s3.407-0.578,4.797-1.734
		c11.979-9.969,27.148-15.459,42.712-15.459c10.485,0,20.742,2.395,29.85,6.933c2.607,8.05,3.891,16.099,3.891,24.514
		c0,44.802-36.449,81.25-81.25,81.25s-81.25-36.448-81.25-81.25c0-8.416,1.284-16.464,3.891-24.514
		C166.749,127.197,177.006,124.803,187.491,124.803z"/>
</g>
<g>
</g>
<g>
</g>
<g>
</g>
<g>
</g>
<g>
</g>
<g>
</g>
<g>
</g>
<g>
</g>
<g>
</g>
<g>
</g>
<g>
</g>
<g>
</g>
<g>
</g>
<g>
</g>
<g>
</g>
</svg>
