<?xml version="1.0" encoding="UTF-8" standalone="no"?>
<svg
   xmlns:dc="http://purl.org/dc/elements/1.1/"
   xmlns:cc="http://creativecommons.org/ns#"
   xmlns:rdf="http://www.w3.org/1999/02/22-rdf-syntax-ns#"
   xmlns:svg="http://www.w3.org/2000/svg"
   xmlns="http://www.w3.org/2000/svg"
   width="132.64444mm"
   height="132.64444mm"
   viewBox="0 0 469.99997 469.99997"
   id="svg2"
   version="1.1">
  <defs
     id="defs4" />
  <metadata
     id="metadata7">
    <rdf:RDF>
      <cc:Work
         rdf:about="">
        <dc:format>image/svg+xml</dc:format>
        <dc:type
           rdf:resource="http://purl.org/dc/dcmitype/StillImage" />
        <dc:title></dc:title>
      </cc:Work>
    </rdf:RDF>
  </metadata>
  <g
     id="layer1"
     transform="translate(1979.9501,1471.448)">
    <rect
       style="opacity:1;fill:#6da8d6;fill-opacity:1;fill-rule:evenodd;stroke:#082947;stroke-width:15;stroke-linejoin:round;stroke-miterlimit:4;stroke-dasharray:none;stroke-opacity:1"
       id="rect4136"
       width="375.92142"
       height="258.87701"
       x="-1931.7311"
       y="-1454.438"
       rx="5.8901182e-18"
       ry="6.985695e-18" />
    <g
       id="g4996"
       transform="translate(-1674.0116,64.343934)">
      <g
         id="g4960" />
      <g
         id="g4962" />
      <g
         id="g4964" />
      <g
         id="g4966" />
      <g
         id="g4968" />
      <g
         id="g4970" />
      <g
         id="g4972" />
      <g
         id="g4974" />
      <g
         id="g4976" />
      <g
         id="g4978" />
      <g
         id="g4980" />
      <g
         id="g4982" />
      <g
         id="g4984" />
      <g
         id="g4986" />
      <g
         id="g4988" />
    </g>
    <rect
       style="opacity:1;fill:#ffcc75;fill-opacity:1;fill-rule:evenodd;stroke:#082947;stroke-width:15;stroke-linejoin:round;stroke-miterlimit:4;stroke-dasharray:none;stroke-opacity:1"
       id="rect5038"
       width="375.52667"
       height="42.696655"
       x="-1931.7332"
       y="-1238.4769"
       rx="1.1232043e-17"
       ry="1.4999218e-17" />
    <circle
       style="opacity:1;fill:#ffcc75;fill-opacity:1;fill-rule:evenodd;stroke:#082947;stroke-width:15;stroke-linejoin:round;stroke-miterlimit:4;stroke-dasharray:none;stroke-opacity:1"
       id="path5042"
       cx="-659.62964"
       cy="360.40771"
       r="0" />
    <g
       id="flowRoot5062"
       style="font-style:normal;font-weight:normal;font-size:40px;line-height:125%;font-family:Sans;letter-spacing:0px;word-spacing:0px;fill:#ffffff;fill-opacity:1;stroke:none;stroke-width:1px;stroke-linecap:butt;stroke-linejoin:miter;stroke-opacity:1"
       transform="matrix(1.2755386,0,0,1.2274133,-518.81747,-2592.3296)">
      <path
         id="path4911"
         style="font-style:normal;font-variant:normal;font-weight:normal;font-stretch:normal;font-size:89.99999237px;font-family:'Comic Sans MS';-inkscape-font-specification:'Comic Sans MS';fill:#ffffff;fill-opacity:1"
         d="m -1004.708,1021.9682 q -1.2305,0 -5.3613,-0.5713 -0.3516,6.6358 -0.3516,23.2471 0,1.7578 -1.1426,2.9883 -1.1426,1.1865 -2.8564,1.1865 -1.7578,0 -2.9004,-1.1865 -1.1426,-1.2305 -1.1426,-2.9883 l 0,-12.9199 q 0,-6.46 0.791,-18.1934 0.8789,-12.7002 0.9668,-18.19335 l 0,-6.06445 q 0,-4.35059 0.5274,-6.32812 1.0107,-3.86719 4.3066,-3.33985 1.4063,-0.43945 3.999,-0.65918 2.5928,-0.21972 6.3721,-0.21972 8.04199,0 15.07324,5.49316 7.73437,6.06445 7.73437,14.58984 0,10.89847 -8.26171,17.35837 -7.38282,5.8008 -17.7539,5.8008 z m 2.1973,-34.89256 q -1.9336,0 -3.4717,0.0879 -1.4942,0.0879 -2.5489,0.26367 l -0.088,8.08593 -0.9229,17.49026 4.834,0.5713 q 7.3828,0 12.43651,-3.7354 5.53711,-4.0869 5.53711,-11.03026 0,-4.92187 -5.27344,-8.48144 -4.87792,-3.25195 -10.50288,-3.25195 z" />
      <path
         id="path4913"
         style="font-style:normal;font-variant:normal;font-weight:normal;font-stretch:normal;font-size:89.99999237px;font-family:'Comic Sans MS';-inkscape-font-specification:'Comic Sans MS';fill:#ffffff;fill-opacity:1"
         d="m -924.59571,991.55806 q -1.05469,1.66992 -2.8125,5.1416 l -7.55859,18.67674 q -4.39454,10.5029 -8.26172,18.3692 l -5.49317,9.7998 -2.3291,4.7461 q -1.45019,2.5488 -3.91113,2.5488 -1.71387,0 -3.12012,-1.2744 -1.40625,-1.2744 -1.40625,-3.1641 0,-1.4941 4.13086,-9.3603 l 5.40528,-9.8877 q -7.86621,-10.1514 -10.19532,-15.9961 -1.97753,-4.9659 -6.59179,-11.90921 -6.32813,-9.49219 -7.42676,-11.46973 -0.65918,-1.18652 -0.65918,-2.37305 0,-1.88965 1.36231,-3.16406 1.40625,-1.31836 3.16406,-1.31836 2.15332,0 3.60351,2.06543 l 3.51563,5.44922 q 4.6582,6.89941 6.15234,9.4043 3.2959,5.40526 5.1416,10.01956 1.4502,3.6474 6.19629,9.9756 l 10.06348,-24.52153 q 1.71386,-3.03223 4.74609,-9.36035 1.23047,-2.98828 4.08691,-2.98828 1.75782,0 3.12012,1.23047 1.40625,1.23046 1.40625,3.16406 0,2.02148 -2.3291,6.19629 z" />
    </g>
    <ellipse
       style="opacity:1;fill:#ffcc75;fill-opacity:1;fill-rule:evenodd;stroke:#082947;stroke-width:12.43786716;stroke-linejoin:round;stroke-miterlimit:4;stroke-dasharray:none;stroke-opacity:1"
       id="path5070"
       cx="-1893.0741"
       cy="-1102.4528"
       rx="27.446325"
       ry="27.927212" />
    <g
       id="flowRoot5092"
       style="font-style:normal;font-weight:normal;font-size:40px;line-height:125%;font-family:Sans;letter-spacing:0px;word-spacing:0px;fill:#ffffff;fill-opacity:1;stroke:none;stroke-width:1px;stroke-linecap:butt;stroke-linejoin:miter;stroke-opacity:1"
       transform="matrix(1.3696813,0,0,1.3646885,-464.9527,-2833.6293)">
      <path
         id="path4916"
         style="font-style:normal;font-variant:normal;font-weight:normal;font-stretch:normal;font-size:89.99999237px;font-family:'Comic Sans MS';-inkscape-font-specification:'Comic Sans MS';fill:#ffffff;fill-opacity:1"
         d="m -1012.5615,1120.226 q -2.2852,0 -3.8672,-1.582 -1.582,-1.582 -1.582,-3.8672 0,-2.2412 1.582,-3.8232 1.582,-1.626 3.8672,-1.626 2.2412,0 3.8232,1.626 1.626,1.582 1.626,3.8232 0,2.2852 -1.626,3.8672 -1.582,1.582 -3.8232,1.582 z" />
    </g>
    <ellipse
       ry="30.088827"
       rx="30.243544"
       cy="-1310.4098"
       cx="-1633.021"
       id="path4278"
       style="opacity:1;fill:#ffcc75;fill-opacity:1;fill-rule:evenodd;stroke:#082947;stroke-width:12.43786716;stroke-linejoin:round;stroke-miterlimit:4;stroke-dasharray:none;stroke-opacity:1" />
    <path
       id="path5111"
       d="m -1633.6894,-1269.4538 -36.5967,74.1317 72.255,0 z"
       style="fill:#f2484b;fill-opacity:1;fill-rule:evenodd;stroke:#082947;stroke-width:15;stroke-linecap:butt;stroke-linejoin:miter;stroke-miterlimit:4;stroke-dasharray:none;stroke-opacity:1" />
    <path
       style="fill:#98d9d5;fill-opacity:1;fill-rule:evenodd;stroke:#082947;stroke-width:12.97109222;stroke-linecap:butt;stroke-linejoin:miter;stroke-miterlimit:4;stroke-dasharray:none;stroke-opacity:1"
       d="m -1893.3487,-1069.7259 -38.249,53.0398 75.5172,0 z"
       id="path5113" />
    <ellipse
       ry="27.927212"
       rx="27.446325"
       cy="-1102.4528"
       cx="-1593.2393"
       id="ellipse5133"
       style="opacity:1;fill:#ffcc75;fill-opacity:1;fill-rule:evenodd;stroke:#082947;stroke-width:12.43786716;stroke-linejoin:round;stroke-miterlimit:4;stroke-dasharray:none;stroke-opacity:1" />
    <path
       id="path5135"
       d="m -1593.5138,-1069.7259 -38.249,53.0398 75.5172,0 z"
       style="fill:#98d9d5;fill-opacity:1;fill-rule:evenodd;stroke:#082947;stroke-width:12.97109222;stroke-linecap:butt;stroke-linejoin:miter;stroke-miterlimit:4;stroke-dasharray:none;stroke-opacity:1" />
    <ellipse
       style="opacity:1;fill:#ffcc75;fill-opacity:1;fill-rule:evenodd;stroke:#082947;stroke-width:12.43786716;stroke-linejoin:round;stroke-miterlimit:4;stroke-dasharray:none;stroke-opacity:1"
       id="ellipse5137"
       cx="-1792.668"
       cy="-1102.4528"
       rx="27.446325"
       ry="27.927212" />
    <path
       style="fill:#98d9d5;fill-opacity:1;fill-rule:evenodd;stroke:#082947;stroke-width:12.97109222;stroke-linecap:butt;stroke-linejoin:miter;stroke-miterlimit:4;stroke-dasharray:none;stroke-opacity:1"
       d="m -1792.9425,-1069.7259 -38.249,53.0398 75.5172,0 z"
       id="path5139" />
    <ellipse
       ry="27.927212"
       rx="27.446325"
       cy="-1102.4528"
       cx="-1692.9536"
       id="ellipse5141"
       style="opacity:1;fill:#ffcc75;fill-opacity:1;fill-rule:evenodd;stroke:#082947;stroke-width:12.43786716;stroke-linejoin:round;stroke-miterlimit:4;stroke-dasharray:none;stroke-opacity:1" />
    <path
       id="path5143"
       d="m -1693.2282,-1069.7259 -38.249,53.0398 75.5172,0 z"
       style="fill:#98d9d5;fill-opacity:1;fill-rule:evenodd;stroke:#082947;stroke-width:12.97109222;stroke-linecap:butt;stroke-linejoin:miter;stroke-miterlimit:4;stroke-dasharray:none;stroke-opacity:1" />
  </g>
</svg>
