<?xml version="1.0" encoding="UTF-8" standalone="no"?>
<svg
   xmlns:dc="http://purl.org/dc/elements/1.1/"
   xmlns:cc="http://creativecommons.org/ns#"
   xmlns:rdf="http://www.w3.org/1999/02/22-rdf-syntax-ns#"
   xmlns:svg="http://www.w3.org/2000/svg"
   xmlns="http://www.w3.org/2000/svg"
   xmlns:xlink="http://www.w3.org/1999/xlink"
   version="1.1"
   id="svg2"
   viewBox="0 0 806.49964 1020.2212"
   height="11.335792in"
   width="8.9611063in">
  <defs
     id="defs4">
    <linearGradient
       id="linearGradient2795">
      <stop
         style="stop-color:#b8b8b8;stop-opacity:0.49803922;"
         offset="0"
         id="stop2797" />
      <stop
         style="stop-color:#7f7f7f;stop-opacity:0;"
         offset="1"
         id="stop2799" />
    </linearGradient>
    <linearGradient
       id="linearGradient2787">
      <stop
         style="stop-color:#7f7f7f;stop-opacity:0.5;"
         offset="0"
         id="stop2789" />
      <stop
         style="stop-color:#7f7f7f;stop-opacity:0;"
         offset="1"
         id="stop2791" />
    </linearGradient>
    <linearGradient
       id="linearGradient3676">
      <stop
         style="stop-color:#b2b2b2;stop-opacity:0.5;"
         offset="0"
         id="stop3678" />
      <stop
         style="stop-color:#b3b3b3;stop-opacity:0;"
         offset="1"
         id="stop3680" />
    </linearGradient>
    <linearGradient
       id="linearGradient3236">
      <stop
         style="stop-color:#f4f4f4;stop-opacity:1"
         offset="0"
         id="stop3244" />
      <stop
         style="stop-color:white;stop-opacity:1"
         offset="1"
         id="stop3240" />
    </linearGradient>
    <linearGradient
       id="linearGradient4671">
      <stop
         style="stop-color:#ffd43b;stop-opacity:1;"
         offset="0"
         id="stop4673" />
      <stop
         style="stop-color:#ffe873;stop-opacity:1"
         offset="1"
         id="stop4675" />
    </linearGradient>
    <linearGradient
       id="linearGradient4689">
      <stop
         style="stop-color:#5a9fd4;stop-opacity:1;"
         offset="0"
         id="stop4691" />
      <stop
         style="stop-color:#306998;stop-opacity:1;"
         offset="1"
         id="stop4693" />
    </linearGradient>
    <linearGradient
       x1="224.23996"
       y1="144.75717"
       x2="-65.308502"
       y2="144.75717"
       id="linearGradient2987"
       xlink:href="#linearGradient4671"
       gradientUnits="userSpaceOnUse"
       gradientTransform="translate(100.2702,99.61116)" />
    <linearGradient
       x1="172.94208"
       y1="77.475983"
       x2="26.670298"
       y2="76.313133"
       id="linearGradient2990"
       xlink:href="#linearGradient4689"
       gradientUnits="userSpaceOnUse"
       gradientTransform="translate(100.2702,99.61116)" />
    <linearGradient
       xlink:href="#linearGradient4671"
       id="linearGradient2255"
       gradientUnits="userSpaceOnUse"
       gradientTransform="matrix(0.562541,0,0,0.567972,-11.5974,-7.60954)"
       x1="224.23996"
       y1="144.75717"
       x2="-65.308502"
       y2="144.75717" />
    <linearGradient
       xlink:href="#linearGradient4689"
       id="linearGradient2258"
       gradientUnits="userSpaceOnUse"
       gradientTransform="matrix(0.562541,0,0,0.567972,-11.5974,-7.60954)"
       x1="172.94208"
       y1="76.176224"
       x2="26.670298"
       y2="76.313133" />
    <radialGradient
       xlink:href="#linearGradient2795"
       id="radialGradient2801"
       cx="61.518883"
       cy="132.28575"
       fx="61.518883"
       fy="132.28575"
       r="29.036913"
       gradientTransform="matrix(1,0,0,0.177966,0,108.7434)"
       gradientUnits="userSpaceOnUse" />
  </defs>
  <metadata
     id="metadata7">
    <rdf:RDF>
      <cc:Work
         rdf:about="">
        <dc:format>image/svg+xml</dc:format>
        <dc:type
           rdf:resource="http://purl.org/dc/dcmitype/StillImage" />
        <dc:title></dc:title>
      </cc:Work>
    </rdf:RDF>
  </metadata>
  <g
     transform="translate(-5586.7131,1074.7001)"
     id="layer3" />
  <g
     transform="translate(-2980.0081,-201.51631)"
     id="layer4" />
  <g
     transform="translate(-5586.7131,1074.7001)"
     id="layer1">
    <circle
       style="opacity:1;fill:#353c3c;fill-opacity:1;stroke:none;stroke-width:10.19999981;stroke-miterlimit:4;stroke-dasharray:none;stroke-opacity:1"
       id="circle4555"
       cx="5989.9629"
       cy="-616.5304"
       r="394.24979" />
    <path
       style="fill:#353c3c;fill-opacity:1;fill-rule:evenodd;stroke:none;stroke-width:1px;stroke-linecap:butt;stroke-linejoin:miter;stroke-opacity:1"
       d="m 5761.2981,-455.45142 -148.6886,262.45776 379.5958,129.514678 372.8581,-129.514678 -145.3091,-263.58405 z"
       id="path4557" />
    <path
       style="fill:#fbe673;fill-opacity:1;fill-rule:evenodd;stroke:none;stroke-width:1px;stroke-linecap:butt;stroke-linejoin:miter;stroke-opacity:1"
       d="m 6007.3113,-454.32497 21.1756,341.01833 62.9005,-19.77604 -54.3555,-321.24229 z"
       id="path4559" />
    <path
       style="fill:#fbe673;fill-opacity:1;fill-rule:evenodd;stroke:none;stroke-width:1px;stroke-linecap:butt;stroke-linejoin:miter;stroke-opacity:1"
       d="m 6083.149,-453.19852 69.6259,302.78604 57.2683,-19.77604 -96.707,-281.88355 z"
       id="path4561" />
    <path
       style="fill:#fbe673;fill-opacity:1;fill-rule:evenodd;stroke:none;stroke-width:1px;stroke-linecap:butt;stroke-linejoin:miter;stroke-opacity:1"
       d="m 6157.7472,-453.19852 104.8652,263.70075 51.9096,-17.32996 -125.8478,-246.37079 z"
       id="path4563" />
    <path
       id="path4565"
       d="m 5974.3408,-455.45142 -21.1758,341.01833 -62.9004,-19.77604 54.3556,-321.24229 z"
       style="fill:#fbe673;fill-opacity:1;fill-rule:evenodd;stroke:none;stroke-width:1px;stroke-linecap:butt;stroke-linejoin:miter;stroke-opacity:1" />
    <path
       id="path4567"
       d="m 5898.5029,-454.32497 -69.6258,302.78604 -57.2682,-19.77588 96.7069,-281.88371 z"
       style="fill:#fbe673;fill-opacity:1;fill-rule:evenodd;stroke:none;stroke-width:1px;stroke-linecap:butt;stroke-linejoin:miter;stroke-opacity:1" />
    <path
       id="path4569"
       d="m 5823.9048,-454.32497 -104.8654,263.70075 -51.9094,-17.3298 125.8478,-246.37095 z"
       style="fill:#fbe673;fill-opacity:1;fill-rule:evenodd;stroke:none;stroke-width:1px;stroke-linecap:butt;stroke-linejoin:miter;stroke-opacity:1" />
    <ellipse
       style="opacity:1;fill:#353c3c;fill-opacity:1;stroke:none;stroke-width:10.19999981;stroke-miterlimit:4;stroke-dasharray:none;stroke-opacity:1"
       id="ellipse4571"
       cx="5988.1948"
       cy="-612.11188"
       rx="275.9303"
       ry="280.43604" />
    <circle
       style="opacity:1;fill:#fbe673;fill-opacity:1;stroke:none;stroke-width:10.19999981;stroke-miterlimit:4;stroke-dasharray:none;stroke-opacity:1"
       id="circle4573"
       cx="5989.9629"
       cy="-614.27771"
       r="220.77988" />
    <g
       id="g4575"
       transform="matrix(2.122573,0,0,2.122573,4422.0203,-891.57731)"
       style="fill:#353c3c;fill-opacity:1">
      <path
         id="path4577"
         d="m 737.77741,44.538821 c -6.98314,0.03245 -13.65189,0.628009 -19.51969,1.666315 -17.28581,3.053838 -20.42425,9.44578 -20.42425,21.233612 l 0,15.568141 40.8485,0 0,5.189381 -40.8485,0 -15.33011,0 c -11.87172,0 -22.26693,7.135586 -25.51842,20.70991 -3.75056,15.55934 -3.9169,25.26861 0,41.51505 2.90366,12.09322 9.838,20.70991 21.7097,20.70991 l 14.04466,0 0,-18.66272 c 0,-13.48273 11.66557,-25.37559 25.51842,-25.37559 l 40.8009,0 c 11.35753,0 20.42428,-9.35143 20.42427,-20.75753 l 0,-38.896552 c 0,-11.070179 -9.33896,-19.386043 -20.42427,-21.233612 -7.01714,-1.168097 -14.29806,-1.698763 -21.28121,-1.666315 z m -22.09057,12.521166 c 4.21936,0 7.66504,3.501959 7.66504,7.807875 0,4.290654 -3.44568,7.760266 -7.66504,7.760266 -4.2345,-10e-7 -7.66505,-3.469614 -7.66505,-7.760266 0,-4.305915 3.43055,-7.807875 7.66505,-7.807875 z"
         style="fill:#353c3c;fill-opacity:1" />
      <path
         id="path4579"
         d="m 784.57705,88.19627 0,18.13903 c 0,14.06294 -11.92265,25.89929 -25.51843,25.8993 l -40.8009,0 c -11.17605,0 -20.42425,9.56518 -20.42425,20.75752 l 0,38.89654 c 0,11.07018 9.62629,17.58155 20.42425,20.75754 12.93035,3.80202 25.32987,4.48915 40.8009,0 10.28379,-2.9775 20.42428,-8.96971 20.42427,-20.75754 l 0,-15.56814 -40.80092,0 0,-5.18938 40.80092,0 20.42427,0 c 11.87172,0 16.2956,-8.28077 20.42425,-20.70991 4.26474,-12.7956 4.08327,-25.10064 0,-41.51505 -2.93391,-11.818364 -8.53743,-20.70991 -20.42425,-20.70991 l -15.33011,0 z m -22.94754,98.50301 c 4.23451,0 7.66505,3.46963 7.66505,7.76028 0,4.3059 -3.43054,7.80787 -7.66505,7.80787 -4.21937,0 -7.66505,-3.50197 -7.66505,-7.80787 2e-5,-4.29065 3.44568,-7.76028 7.66505,-7.76028 z"
         style="fill:#353c3c;fill-opacity:1" />
    </g>
  </g>
  <g
     transform="translate(-5586.7131,1074.7001)"
     id="layer2">
    <g
       id="text4581"
       style="font-style:normal;font-weight:normal;font-size:40px;line-height:125%;font-family:Sans;letter-spacing:0px;word-spacing:0px;fill:#fbe673;fill-opacity:1;stroke:none;stroke-width:1px;stroke-linecap:butt;stroke-linejoin:miter;stroke-opacity:1"
       transform="matrix(-0.65590932,-0.15420687,0.15420687,-0.65590932,5293.8242,-647.92489)">
      <path
         id="path4663"
         style="font-style:normal;font-variant:normal;font-weight:normal;font-stretch:normal;font-size:115.19722748px;font-family:Montserrat;-inkscape-font-specification:Montserrat;fill:#fbe673;fill-opacity:1"
         d="m -538.84955,236.03528 q -1.76688,18.23094 -9.57234,25.92326 -7.80547,7.69233 -22.36729,6.28105 -14.56182,-1.41127 -20.49333,-10.66641 -5.94262,-9.14047 -4.23131,-26.79811 l 1.37794,-14.21784 -23.5053,-2.27804 1.31126,-13.52988 80.14734,7.76757 -2.66697,27.5184 z m -44.54011,-2.5806 q -1.08902,11.23668 2.76447,15.66094 3.95703,4.55003 12.21255,5.35012 8.37018,0.81121 12.31004,-4.01512 3.93986,-4.82633 5.00665,-15.83369 l 1.33349,-13.7592 -32.1048,-3.11147 -1.5224,15.70842 z" />
      <path
         id="path4665"
         style="font-style:normal;font-variant:normal;font-weight:normal;font-stretch:normal;font-size:115.19722748px;font-family:Montserrat;-inkscape-font-specification:Montserrat;fill:#fbe673;fill-opacity:1"
         d="m -635.11792,308.632 3.87906,-13.26826 30.51699,8.92184 55.17524,-15.0742 -4.16999,14.26337 -41.33505,10.83914 28.98671,31.39815 -4.16999,14.26338 -38.36598,-42.42158 -30.51699,-8.92184 z" />
      <path
         id="path4667"
         style="font-style:normal;font-variant:normal;font-weight:normal;font-stretch:normal;font-size:115.19722748px;font-family:Montserrat;-inkscape-font-specification:Montserrat;fill:#fbe673;fill-opacity:1"
         d="m -601.01272,404.12032 -60.93077,-30.37335 6.06439,-12.16553 60.93077,30.37335 10.89535,-21.85672 11.13455,5.55046 -27.85508,55.87898 -11.13456,-5.55046 10.89535,-21.85673 z" />
      <path
         id="path4669"
         style="font-style:normal;font-variant:normal;font-weight:normal;font-stretch:normal;font-size:115.19722748px;font-family:Montserrat;-inkscape-font-specification:Montserrat;fill:#fbe673;fill-opacity:1"
         d="m -680.69228,408.5067 63.54073,49.46218 -8.34984,10.72648 -27.5434,-21.44069 -24.55419,31.54311 27.54341,21.44069 -8.34984,10.72647 -63.54073,-49.46217 8.34984,-10.72648 25.99807,20.23774 24.55418,-31.54311 -25.99807,-20.23774 8.34984,-10.72648 z" />
      <path
         id="path4671"
         style="font-style:normal;font-variant:normal;font-weight:normal;font-stretch:normal;font-size:115.19722748px;font-family:Montserrat;-inkscape-font-specification:Montserrat;fill:#fbe673;fill-opacity:1"
         d="m -743.6748,561.84347 q 11.71607,1.51611 21.05138,-5.99287 9.3353,-7.50897 10.45528,-19.34992 1.03022,-11.76875 -6.62316,-21.28359 -7.58118,-9.42506 -19.29725,-10.94117 -11.80582,-1.44391 -21.14113,6.06507 -9.33531,7.50897 -10.36552,19.27772 -1.11998,11.84095 6.4612,21.26602 7.65338,9.51483 19.4592,10.95874 z m -39.43368,-33.03445 q 2.07806,-16.89893 16.08102,-28.16239 14.00296,-11.26346 30.95456,-9.6713 17.02381,1.68193 28.14287,15.50536 11.19126,13.9132 9.1132,30.81212 -2.00585,16.98868 -16.00881,28.25215 -14.00296,11.26346 -31.02677,9.58154 -16.9516,-1.59217 -28.14286,-15.50536 -11.11906,-13.82344 -9.11321,-30.81212 z" />
      <path
         id="path4673"
         style="font-style:normal;font-variant:normal;font-weight:normal;font-stretch:normal;font-size:115.19722748px;font-family:Montserrat;-inkscape-font-specification:Montserrat;fill:#fbe673;fill-opacity:1"
         d="m -835.6685,635.16568 -12.32416,5.73518 -33.97361,-73.00497 13.36857,-6.2212 66.14666,34.01857 -24.78762,-53.26543 12.32415,-5.73517 33.97362,73.00496 -12.32415,5.73517 -67.77432,-34.78584 25.37086,54.51873 z" />
      <path
         id="path4675"
         style="font-style:normal;font-variant:normal;font-weight:normal;font-stretch:normal;font-size:115.19722748px;font-family:Montserrat;-inkscape-font-specification:Montserrat;fill:#fbe673;fill-opacity:1"
         d="m -979.23521,669.49461 -1.78863,-12.66118 42.54612,-6.01043 -2.98105,-21.10197 -38.21166,5.39811 -1.69195,-11.97679 38.21167,-5.39811 -3.01328,-21.33009 -43.91489,6.2038 -1.78863,-12.66118 57.37453,-8.10522 11.26352,79.7312 -56.00575,7.91186 z" />
      <path
         id="path4677"
         style="font-style:normal;font-variant:normal;font-weight:normal;font-stretch:normal;font-size:115.19722748px;font-family:Montserrat;-inkscape-font-specification:Montserrat;fill:#fbe673;fill-opacity:1"
         d="m -1057.0815,588.03182 18.2997,31.23482 0.5753,0.0283 21.2802,-29.28557 16.9135,0.83296 -29.6481,39.9458 23.7313,40.38326 -16.7984,-0.8273 -16.6118,-28.0376 -0.5753,-0.0283 -19.2863,26.26967 -16.7984,-0.82729 27.5845,-37.85604 -25.5796,-42.66568 16.9134,0.83296 z" />
      <path
         id="path4679"
         style="font-style:normal;font-variant:normal;font-weight:normal;font-stretch:normal;font-size:115.19722748px;font-family:Montserrat;-inkscape-font-specification:Montserrat;fill:#fbe673;fill-opacity:1"
         d="m -1133.2568,655.88559 q -17.7703,-4.43921 -24.2259,-13.29487 -6.4556,-8.85565 -2.9098,-23.04951 3.5458,-14.19386 13.5753,-18.69389 9.9177,-4.52795 27.1291,-0.22834 l 13.8586,3.46203 5.7235,-22.91135 13.188,3.2945 -19.5158,78.12212 -26.823,-6.70069 z m 9.1284,-43.67096 q -10.9527,-2.73611 -15.8975,0.42192 -5.0844,3.24188 -7.0946,11.28879 -2.0381,8.15868 2.1536,12.76794 4.1918,4.60926 14.921,7.28954 l 13.4115,3.35035 7.8175,-31.29356 -15.3115,-3.82498 z" />
      <path
         id="path4681"
         style="font-style:normal;font-variant:normal;font-weight:normal;font-stretch:normal;font-size:115.19722748px;font-family:Montserrat;-inkscape-font-specification:Montserrat;fill:#fbe673;fill-opacity:1"
         d="m -1244.6359,584.33391 q 8.6635,-17.94754 26.5822,-15.05422 l -6.2652,-35.51497 15.5614,7.51168 5.5568,32.74261 16.0802,7.76207 11.7683,-24.37961 12.2416,5.90919 -35.0044,72.51636 -26.9732,-13.02025 q -16.5988,-8.01245 -21.0529,-17.06995 -4.4541,-9.05749 1.5052,-21.40291 z m 36.9068,1.18622 q -10.3743,-5.00778 -15.6614,-3.59455 -5.2872,1.41323 -8.6925,8.46775 -3.4554,7.15827 -0.8688,11.60472 2.5364,4.5502 12.392,9.3076 l 15.5615,7.51168 12.5194,-25.93575 -15.2502,-7.36145 z" />
      <path
         id="path4683"
         style="font-style:normal;font-variant:normal;font-weight:normal;font-stretch:normal;font-size:115.19722748px;font-family:Montserrat;-inkscape-font-specification:Montserrat;fill:#fbe673;fill-opacity:1"
         d="m -1331.2488,554.39812 7.7269,-10.18816 34.2359,25.96537 12.8783,-16.98027 -30.7481,-23.32011 7.3093,-9.63745 30.7481,23.32011 13.0175,-17.16384 -35.3373,-26.80073 7.7269,-10.18816 46.168,35.01497 -48.659,64.1579 -45.0665,-34.17963 z" />
      <path
         id="path4685"
         style="font-style:normal;font-variant:normal;font-weight:normal;font-stretch:normal;font-size:115.19722748px;font-family:Montserrat;-inkscape-font-specification:Montserrat;fill:#fbe673;fill-opacity:1"
         d="m -1364.3494,506.1754 q 3.9522,4.34706 8.2994,5.53251 4.3472,1.18545 8.0124,-2.14674 3.5799,-3.25471 2.9831,-7.84985 -0.6821,-4.51764 -6.7577,-15.65276 -6.1531,-11.22034 -6.3316,-19.46528 -0.256,-8.33017 7.5858,-15.45952 7.7565,-7.05186 17.962,-5.58764 10.2055,1.46422 18.8847,11.0107 12.7088,13.97877 12.9187,33.5605 l -13.3205,0.58937 q -0.3725,-16.16441 -9.2067,-25.88136 -4.4171,-4.85848 -9.02,-5.81145 -4.7657,-0.96071 -8.1752,2.139 -3.4947,3.17721 -2.8901,7.60962 0.4419,4.42467 4.8746,12.38275 4.3474,8.03557 6.1686,12.60742 1.7359,4.64934 2.0073,9.22899 0.7985,8.92683 -7.4695,16.44364 -8.2679,7.51682 -18.1247,5.5799 -10.0195,-1.94466 -18.0788,-10.80925 -5.192,-5.71084 -8.4314,-13.04129 -3.2393,-7.33045 -3.5495,-14.52151 l 12.4681,-1.52698 q 0.016,4.81213 2.5885,10.72454 2.5729,5.9124 6.6025,10.34469 z" />
      <path
         id="path4687"
         style="font-style:normal;font-variant:normal;font-weight:normal;font-stretch:normal;font-size:115.19722748px;font-family:Montserrat;-inkscape-font-specification:Montserrat;fill:#fbe673;fill-opacity:1"
         d="m -1415.8704,438.29593 q 3.1048,4.98767 7.1675,6.93656 4.0627,1.94888 8.268,-0.66885 4.1075,-2.55686 4.3478,-7.18435 0.1426,-4.56662 -3.8285,-16.61376 -4.0321,-12.14493 -2.723,-20.28723 1.2482,-8.2401 10.2456,-13.84084 8.8996,-5.53985 18.6746,-2.26185 9.775,3.278 16.5932,14.23131 9.984,16.03877 6.6643,35.3382 l -13.2089,-1.81891 q 2.5443,-15.96725 -4.3957,-27.11616 -3.47,-5.57445 -7.8261,-7.3407 -4.5148,-1.80317 -8.4267,0.63193 -4.0097,2.49598 -4.2131,6.9648 -0.3622,4.4319 2.565,13.05809 2.8295,8.68707 3.7976,13.51213 0.8703,4.88594 0.3126,9.4396 -0.8221,8.92468 -10.3084,14.8298 -9.4864,5.90512 -18.8332,2.22493 -9.5056,-3.71711 -15.8369,-13.88803 -4.0788,-6.55243 -5.9451,-14.34636 -1.8664,-7.79394 -0.8766,-14.92331 l 12.5392,0.74314 q -0.8511,4.73629 0.615,11.01534 1.4662,6.27906 4.6318,11.36452 z" />
    </g>
    <rect
       style="opacity:1;fill:#353c3c;fill-opacity:1;stroke:none;stroke-width:10.19999981;stroke-miterlimit:4;stroke-dasharray:none;stroke-opacity:1"
       id="rect4587"
       width="136.99883"
       height="73.27845"
       x="5920.186"
       y="-1040.4854"
       ry="4.9815512" />
    <rect
       style="opacity:1;fill:#353c3c;fill-opacity:1;stroke:none;stroke-width:10.19999981;stroke-miterlimit:4;stroke-dasharray:none;stroke-opacity:1"
       id="rect4589"
       width="178.84079"
       height="39.825241"
       x="5899.5664"
       y="-1065.7002"
       ry="11.866701" />
    <path
       style="opacity:1;fill:#fbe673;fill-opacity:1;stroke:none;stroke-width:10.19999981;stroke-miterlimit:4;stroke-dasharray:none;stroke-opacity:1"
       id="path4591"
       d="m 5728.6316,-600.76068 -19.496,17.96345 3.7453,26.24406 -23.1089,-12.99076 -23.8022,11.67185 5.2139,-25.99218 -18.4558,-19.03047 26.3312,-3.07328 12.3958,-23.43333 11.0597,24.09278 z" />
    <path
       d="m 6332.3972,-600.76068 -19.496,17.96345 3.7453,26.24406 -23.1088,-12.99076 -23.8023,11.67185 5.214,-25.99218 -18.4559,-19.03047 26.3312,-3.07328 12.3959,-23.43333 11.0596,24.09278 z"
       id="path4593"
       style="opacity:1;fill:#fbe673;fill-opacity:1;stroke:none;stroke-width:10.19999981;stroke-miterlimit:4;stroke-dasharray:none;stroke-opacity:1" />
    <flowRoot
       transform="translate(5592.1696,-1069.2435)"
       style="font-style:normal;font-weight:normal;font-size:40px;line-height:125%;font-family:Sans;letter-spacing:0px;word-spacing:0px;fill:#000000;fill-opacity:1;stroke:none;stroke-width:1px;stroke-linecap:butt;stroke-linejoin:miter;stroke-opacity:1"
       id="flowRoot4636"
       xml:space="preserve"><flowRegion
         id="flowRegion4638"><rect
           y="1496.9238"
           x="-2994.6885"
           height="1074.7809"
           width="3885.7461"
           id="rect4640" /></flowRegion><flowPara
         id="flowPara4642"></flowPara></flowRoot>  </g>
</svg>
